# xmcd CD database file
#
# Track frame offsets:
#       150
#       30243
#       60570
#       82105
#       99192
#       125917
#       146633
#       163354
#       181805
#       194856
#       210985
#       228325
#
# Disc length: 3324 seconds
#
# Revision: 1
# Processed by: cddbd v1.5.2PL0 Copyright (c) Steve Scherf et al.
# Submitted via: CDex 1.70beta2
#
DISCID=a70cfa0c
DTITLE=Spoons - Limited Edition
DYEAR=2008
DGENRE=New Wave
TTITLE0=Nova Heart
TTITLE1=Symmetry
TTITLE2=Arias and Symphonies
TTITLE3=Smiling In Winter
TTITLE4=Blow Away
TTITLE5=Talk Back
TTITLE6=Old Emotions
TTITLE7=The Rhythm
TTITLE8=Tell No Lies
TTITLE9=Romantic Traffic
TTITLE10=Conventional Beliefs
TTITLE11=Red Light
EXTD=
EXTT0=
EXTT1=
EXTT2=
EXTT3=
EXTT4=
EXTT5=
EXTT6=
EXTT7=
EXTT8=
EXTT9=
EXTT10=
EXTT11=
PLAYORDER=
